<svg version="1.1" xmlns="http://www.w3.org/2000/svg" xmlns:xlink="http://www.w3.org/1999/xlink" viewBox="0,0,483.15633760828837,483.15633760828837">
	<g>
		<path d="M0,0M284.56041618,63.42512061 C282.75416982,63.05748125,276.48397148,62.50560989,270.70398318,62.19901468 C264.9240793,61.89241948,258.66234072,61.64714331,256.85609435,61.70846236 C247.52382144,61.89241948,235.5423872,62.87321196,230.96656306,63.7319907 C228.13677708,64.22254303,223.62116116,65.0810096,220.8515834,65.57156193 C200.74204049,69.31202342,174.31063529,80.41076982,156.06804689,92.91985416 C136.92133546,105.98060175,118.91907998,123.45673652,106.93764573,140.68738701 C90.56101199,164.29521775,80.20519947,188.94547218,74.84674137,217.02971598 C72.67917294,228.37361547,71.89646618,237.2648764,71.83624494,251.55221292 C71.83624494,259.58500728,71.17396763,264.79712575,71.17396763,264.79712575 C71.17396763,264.79712575,67.68189132,266.8206541,64.18947331,268.23099204 C60.69773875,269.6413408,56.66378847,271.29694409,55.15858316,271.97093436 C53.65337785,272.58471417,49.86068816,274.11761997,46.72943344,275.2828199 C43.59867669,276.50906254,39.62486439,278.16467666,37.87882623,279.02313645 C36.19299628,279.82029077,34.14591707,280.49480022,34.14591707,280.49480022 C34.14591707,280.49480022,32.03862964,281.16968023,30.23238327,282.02777998 C28.4261369,282.88624281,26.49956914,283.56075226,26.49956914,283.56075226 C25.29530986,283.56075226,17.37631657,287.73044704,17.37631657,287.73044704 C17.0205041,288.77317073,18.68184143,300.1163213,20.30657242,307.168583 C22.59537523,317.04074811,25.18343761,322.06910407,25.18343761,322.06910407 C25.18343761,322.06910407,29.5184289,320.84272857,33.55237912,319.12579597 C37.64653756,317.34727379,44.26944091,314.64950599,48.24318292,312.99389188 C52.21692493,311.3993744,59.80315968,308.27232574,65.16169058,306.06484026 C70.46001326,303.91867383,75.75833594,301.89514548,76.90229198,301.64945775 C78.76874656,301.28195508,84.97074081,299.01315056,87.98084499,297.66413287 C87.98084499,297.66413287,93.09830108,295.51796523,97.91495385,293.61707497 C108.21056237,289.50869923,112.30472081,287.48517088,112.72617829,286.38142814 C112.72617829,286.38142814,112.72617829,284.05130459,112.365155,282.27293722 C110.01680874,270.37715847,109.71576768,267.12724931,109.71576768,251.98144621 C109.71576768,240.26958135,109.95660053,235.36398613,110.73946336,231.13297231 C113.80992611,214.27000452,113.87058684,214.0249599,117.60304349,202.6196183 C125.12907002,179.74761605,139.45862455,157.48880421,158.06254011,139.95155852 C175.88467798,123.08882228,201.17204216,109.4759952,224.65324495,104.20255769 C240.0665473,100.70714343,241.39112797,100.52341523,258.36984384,100.52341523 C272.75960657,100.52341523,275.46897613,100.70714343,281.85142022,101.93375317 C294.31414658,104.32519577,296.24080937,104.81574811,305.63329049,108.00433822 C327.54907976,115.36262313,345.91258504,126.76796473,362.0483899,142.89440869 C371.86232401,152.76759186,377.34127133,159.63520814,384.86729787,171.34690745 C385.83062927,172.87988347,387.63648777,174.29022141,387.63648777,174.29022141 C387.63648777,174.29022141,392.81478189,172.75724539,397.87227173,170.67285282 C402.92976156,168.58712061,410.2149149,165.64423665,414.00807262,164.04994158 C417.80119,162.51696556,421.7150352,160.73871338,421.7150352,160.73871338 C421.7150352,160.73871338,422.07597307,159.51233256,420.81160061,157.36616613 C415.8745272,148.53622432,405.45850647,133.69649607,399.31726882,126.58400761 C386.73346568,112.174033,368.4911033,96.66031566,353.79986033,88.01433089 C348.62195407,85.00969789,330.25844932,75.93440989,327.60929339,75.07601327 C326.28465454,74.64678158,324.59887736,73.84963245,324.59887736,73.84963245 C322.43138172,72.25533739,303.76683591,66.92058083,294.61518764,65.26496673 C290.88189582,64.59045728,286.36666255,63.79330975,284.56041618,63.42512061Z M194.66973078,174.59687398 C191.1172707,170.73371704,188.82977304,169.20074102,184.85561662,167.9743602 C175.70396835,165.15370324,166.31148724,168.34227445,158.42421142,176.92694017 C153.9085955,181.83246344,146.74381824,194.83162325,142.10778589,206.72799404 C137.59216997,218.25597372,133.43780332,240.02423324,133.43780332,252.28804141 C133.43780332,260.13644194,135.84613181,277.98071954,137.65237818,283.56075226 C138.25446031,285.4000843,139.09737528,288.15968033,139.45862455,289.69265635 C142.1679941,300.66876465,150.29610276,316.97962954,159.14670997,329.05948059 C173.53647271,348.80421176,201.11183394,368.91685717,221.04075221,374.31293276 C222.06387369,374.61953175,224.77366137,375.35535646,227.06157344,376.02986591 C229.40969372,376.64316037,233.32322752,377.56284193,235.79167341,377.93075618 C238.26030093,378.35998946,241.75237694,378.91186083,243.55862361,379.27977508 C245.36486998,379.58608667,251.92756512,379.83164644,258.12928808,379.83164644 C270.29106987,379.83164644,282.57356005,378.4213085,291.18331954,376.09118495 C293.6519856,375.35535646,296.90309971,374.49688989,296.90309971,374.49688989 C296.90309971,374.49688989,299.3114384,373.69934062,299.3114384,373.69934062 C299.3114384,373.69934062,302.2616306,372.53468056,304.36891803,371.79885209 C311.83473635,369.22374637,323.15388027,362.72363404,330.61977961,356.65363548 C348.26070479,342.36513802,358.19498061,331.14432798,366.80483418,315.69192968 C371.8021158,306.80066875,376.25733723,296.31511276,377.88314524,289.69265635 C378.24482683,288.15968033,379.08712083,285.4000843,379.68939161,283.56075226 C381.49567043,277.98071954,383.90396647,260.13644194,383.90396647,252.28804141 C383.90396647,240.02423324,379.75001717,218.25597372,375.2339839,206.72799404 C369.75503658,192.80844263,362.77088396,180.60608262,357.35214485,175.33264511 C351.81298932,170.05920759,346.51466664,167.42248883,340.67447004,167.11567991 C333.0882353,166.74797938,328.03074546,168.83282677,322.73279358,174.53548909 C316.53033177,181.15795463,315.26660446,189.43602451,318.75868077,200.47337152 C319.78215782,203.84576258,321.28742569,207.64777965,322.00992423,208.87416047 C332.12501074,225.79821575,335.49656379,233.70837203,337.84459289,245.54294692 C339.04878014,251.674851,339.22947295,265.53295424,338.14572513,270.99033993 C332.00448747,302.69187678,309.42672465,325.13514706,276.01085004,332.73862305 C268.0031578,334.57819199,251.98777333,334.76185483,244.82299631,333.10653729 C226.51969953,328.8141852,214.05659959,322.19177754,202.43641461,310.357235 C195.63288662,303.42812061,190.99685427,296.98951051,187.62519439,289.44767225 C182.62791277,278.40933207,181.00229104,270.68375368,181.00229104,258.29690042 C181.00229104,239.6561814,185.09644947,225.18502534,194.78997165,209.6095784 C195.87371947,207.95437486,197.55954942,203.84576258,198.58308903,200.47337152 C202.01495713,189.43602451,200.75058467,181.15795463,194.66973078,174.59687398Z M498.90165196,208.13833198 C498.23936162,204.27532189,496.84574828,195.6508427,495.76207216,191.23587176 C494.37721158,185.77847682,492.87200588,183.14217459,492.87200588,183.14217459 C492.87200588,183.14217459,490.34326136,183.69362973,488.35639035,184.5520963 C484.2020237,186.33034849,478.12099426,188.72179108,474.20754308,190.13212902 C472.70230047,190.68400039,470.89600878,191.60373222,470.89600878,191.60373222 C470.89600878,191.60373222,468.48768029,192.76884778,466.38064404,193.56599531 C459.99832236,196.0800448,453.73666828,198.59415666,448.9200113,200.74032309 C446.45159182,201.84454662,443.32064755,203.00912761,441.99628808,203.37704185 C439.58773839,203.99013497,434.83092022,205.76848445,423.03048001,210.49005059 C410.98883755,215.33425482,405.93134772,217.6645784,404.96801632,218.82944015 C404.96801632,218.82944015,404.48635062,220.42373522,405.14864096,222.93781589 C406.8344709,228.88576286,407.55651918,237.71537474,407.49676124,251.32853182 C407.43655302,264.94135889,407.07484769,268.25230686,404.42614267,281.98806088 C400.15135934,303.7565849,390.69867001,324.48214759,376.24863582,343.73633761 C368.96346716,353.48636684,354.63395084,367.71226659,346.56605039,373.23054856 C346.56605039,373.23054856,343.97709726,375.00903728,342.65251659,375.92882289 C338.07669246,379.2400511,328.50357864,384.75876465,322.36203348,387.76339778 C307.79196167,394.6924494,295.56969458,398.43291089,278.53075257,401.00812061 C269.86070451,402.35732951,247.40381822,402.35732951,238.79335038,401.00812061 C214.64985725,397.32916816,195.38313656,389.90956421,175.87576853,376.78728945 C161.0043401,366.7922858,146.01249524,351.76912078,135.83730736,336.74595577 C131.68303306,330.4914136,131.38189965,330.30745004,129.03387457,331.28856113 C127.94942425,331.71779441,125.48150298,332.69838419,123.49462384,333.4960466 C117.59421903,335.76474811,107.47923937,339.9344437,103.92695484,341.46820503 C102.12070847,342.26466945,98.92967798,343.36826851,98.92967798,343.36826851 C98.92967798,343.36826851,96.91108349,344.594793,96.91108349,344.594793 C96.37230374,346.00513171,101.76874739,354.83507283,110.01678913,366.05645731 C127.05619655,389.23536692,152.28284233,409.96089058,179.3771193,422.96020695 C190.93664606,428.54055996,208.51762308,434.36586885,223.14803964,436.50006757 C242.23404294,440.78091219,274.98731043,443.13722349,294.19373015,439.3111161 C332.36573675,431.11869148,364.75838413,413.67975701,391.42999301,386.27014574 C408.0474596,369.22374637,421.47389095,348.98816888,430.20408173,327.7104617 C431.28782955,325.19651525,432.55220201,322.13042898,433.03386771,321.02668624 C433.57595864,319.86193499,435.02073874,315.5692916,436.28511117,311.52172502 C442.84780631,290.30584676,445.2561348,274.73081037,445.31634301,253.1463996 C445.31634301,242.04776158,445.2561348,242.17039967,450.133,240.33082844 C451.63820531,239.77895692,454.0465338,238.73653338,454.0465338,238.73653338 C455.37111447,238.12334297,475.48065738,229.90659149,482.34439358,227.14723465 C484.69251386,226.22744904,489.26833799,224.38800625,492.57978967,223.03885891 C495.89124134,221.68936103,499.74456693,220.15686399,499.74456693,220.15686399 C499.74456693,220.15686399,500.76810654,219.42103619,500.40685727,217.45882619 C500.16602442,216.23260631,499.50373408,212.00155776,498.90165196,208.13833198Z "/>
	</g>
</svg>